<?xml version="1.0" encoding="utf-8"?>
<!-- Generator: Adobe Illustrator 16.0.0, SVG Export Plug-In . SVG Version: 6.00 Build 0)  -->
<!DOCTYPE svg PUBLIC "-//W3C//DTD SVG 1.1//EN" "http://www.w3.org/Graphics/SVG/1.1/DTD/svg11.dtd">
<svg version="1.1" id="Calque_1" xmlns="http://www.w3.org/2000/svg" xmlns:xlink="http://www.w3.org/1999/xlink" x="0px" y="0px"
	 width="500px" height="500px" viewBox="0 0 500 500" enable-background="new 0 0 500 500" xml:space="preserve">
<g>
	<g>
		<path style="fill:#1670A7;" d="M221.643,296.73c0,0,70.093-88.708,76.488-84.204c6.398,4.489-53.341,100.459-53.341,100.459
			c-4.494,6.398-13.323,7.939-19.693,3.422C216.124,310.053,218.514,301.184,221.643,296.73z"/>
	</g>
	<path style="fill:#1670A7;" d="M76.15,300.965c0,94.037,76.506,170.56,170.553,170.56c94.042,0,170.543-76.522,170.543-170.56
		c0-42.49-15.656-81.391-41.47-111.281l13.775-14.235l10.158,9.831c2.759,2.656,12.876,5.927,19.988-0.337
		c5.865-5.161,5.293-14.573-0.327-20L378.7,125.64c-5.621-5.427-14.572-5.273-19.99,0.327c-5.436,5.621-5.271,14.572,0.327,19.999
		l10.18,9.831l-13.571,14.04c-18.477-15.369-40.264-26.896-64.096-33.395c11.404-11.457,18.477-27.255,18.477-44.648
		c0-34.919-28.409-63.318-63.317-63.318c-34.91,0-63.318,28.399-63.318,63.318c0,17.394,7.062,33.191,18.47,44.648
		C129.509,156.185,76.155,222.441,76.15,300.965z M274.056,132.641c-4.354-0.706-8.748-1.228-13.204-1.595v-19.049h14.144
		c7.807,0,14.143-6.346,14.143-14.144c0-7.807-6.336-14.143-14.143-14.143h-56.568c-7.803,0-14.143,6.336-14.143,14.143
		c0,7.798,6.34,14.144,14.143,14.144h14.139v19.049c-4.451,0.378-8.855,0.889-13.208,1.595
		c-13.153-8.83-21.822-23.843-21.822-40.837c0-27.121,22.058-49.174,49.174-49.174c27.121,0,49.175,22.053,49.175,49.174
		C295.884,108.798,287.196,123.801,274.056,132.641z M104.442,300.965c0-78.442,63.812-142.267,142.267-142.267
		c78.442,0,142.271,63.824,142.271,142.267c0,78.463-63.829,142.273-142.271,142.273
		C168.255,443.238,104.442,379.428,104.442,300.965z"/>
</g>
</svg>
