<?xml version="1.0" encoding="utf-8"?>
<!-- Generator: Adobe Illustrator 15.0.0, SVG Export Plug-In  -->
<!DOCTYPE svg PUBLIC "-//W3C//DTD SVG 1.1//EN" "http://www.w3.org/Graphics/SVG/1.1/DTD/svg11.dtd" [
	<!ENTITY ns_flows "http://ns.adobe.com/Flows/1.0/">
]>
<svg version="1.1"
	 xmlns="http://www.w3.org/2000/svg" xmlns:xlink="http://www.w3.org/1999/xlink" xmlns:a="http://ns.adobe.com/AdobeSVGViewerExtensions/3.0/"
	 x="0px" y="0px" width="200px" height="275px" viewBox="-60 -0.273 200 275" enable-background="new -60 -0.273 200 275"
	 xml:space="preserve">
<defs>
</defs>
<path fill="#E4CED0" d="M14.329,243.898l-2.694,0.524c-0.841,1.467-2.104,2.065-3.106,3.366c-0.318,0.413-0.675,1.336-1.027,2.425
	c-0.841,1.703-2.898,5.301-3.185,5.5c-0.291,0.201-3.538,1.717-3.998,2.286c-0.459,0.568-0.404,1.103,0.048,1.067
	s1.73-0.656,1.73-0.656l0.01-0.004c-0.082,0.227-0.044,0.342,0.215,0.307c0.401-0.057,3.575-0.652,3.874-0.741
	c0.299-0.088,3.766-2.845,4.235-3.362c0.469-0.517,4.413-6.746,4.413-6.746L14.329,243.898z"/>
<path fill="#E4CED0" d="M139.329,272.003c-1.001-1.22-4.325-2.943-4.593-3.218c-0.267-0.274-0.913-4.782-1.548-5.929
	c-0.637-1.147-3.428-3.188-3.688-3.951c-0.262-0.763-1.304-3.92-1.304-3.92l-4.184,0.703l-1.271,1.826
	c0.843,1.964,6.356,11.358,7.002,11.801c0.644,0.442,9.042,4.889,9.689,5.114S140.329,273.222,139.329,272.003z"/>
<path fill="#1670A7" d="M55.38,152.774c-0.361,4.031-2.419,13.65-2.483,18.554c-0.064,4.902-1.585,10.665-2.22,14.993
	s-1.285,9.813-3.038,11.234c-1.754,1.423-7.861,4.234-10.228,8.25c-2.365,4.017-7.185,7.813-8.717,8.878
	c-1.532,1.063-2.669,5.169-4.872,7.742c-2.202,2.572-12.188,21.997-12.188,21.997s1.681,4.069,2.989,3.508
	c1.308-0.561,19.435-23.348,20.111-25.362c0.677-2.015,4.821-3.869,7.607-6.869c2.785-2.998,5.717-6.141,9.203-7.396
	c3.485-1.255,8.145-3.796,10.485-5.934s3.063-2.128,3.191-0.825c0.127,1.303,0.399,5.028-0.807,6.35
	c-1.76,1.928-2.644,3.218-2.286,9.076c0.246,4.063,3.449,12.477,10.102,12.275c6.652-0.202,9.507-7.81,8.988-13.036
	c-0.639-6.441-1.208-7.1-4.07-9.306c-1.383-1.065-1.223-5.942-0.352-6.22c0.87-0.278,2.579,0.127,3.577,2.793
	c1.955,5.229,9.875,7.502,12.585,10.283c2.14,2.196,5.533,8.023,8.393,10.374c2.86,2.35,3.715,3.373,5.546,7.01
	c1.831,3.639,12.146,21.843,15.844,26.371c0,0,6.004-0.354,5.455-2.529c-0.551-2.176-4.59-13.793-7.702-19.037
	c-1.683-2.838-4.96-7.51-5.797-9.834c-0.838-2.323-3.058-3.87-4.192-5.475c-1.136-1.605-4.785-9.893-8.346-13.986
	c-3.56-4.095-7.233-5.435-7.242-9.925c-0.02-9.54-3.687-16.504-4.589-24.911c-0.901-8.407-2.977-14.356-1.784-18.248
	c2.492-8.135,5.466-20.021,6.949-33.878c1.481-13.857-0.128-39.897,0.553-42.274c0.682-2.376-0.045-7.59,0.873-11.48
	c0.919-3.891,1.521-5.763-0.204-17.493c-1.726-11.731-2.958-16.952-2.958-16.952s-6.648-0.087-6.821,2.08
	c-0.173,2.166-1.183,12.994-2.251,17.316c-1.068,4.322-1.802,16.166-1.246,17.908c0.556,1.741-2.118,7.199-3.709,18.309
	s-5.68,32.161-5.646,33.751c-0.419-1.162-0.846-15.441-0.982-21.515c-0.139-6.072-0.342-20.979-0.847-26.464
	c-0.189-2.062,2.37-7.124,1.911-13.526c-0.458-6.402,0.517-17.339,0.774-19.071c0.257-1.731-6.12-3.116-6.456-2.361
	c-0.335,0.755-6.098,18.567-7.355,23.646c-1.26,5.079-0.349,9.969-0.7,12.024c-0.353,2.055-1.121,2.804-1.383,6.27
	c-0.263,3.466-2.538,11.676-4.411,22.167c-1.871,10.492-2.31,19.158-1.806,30.332C53.333,143.532,55.552,150.866,55.38,152.774z"/>
<path fill="#E4CED0" d="M93.644,20.794c-1.179-5.165-1.78-8.859-1.609-9.562c0.172-0.702,0.295-1.442,0.013-2.818
	c-0.282-1.377-1.104-1.82-1.123-2.443c-0.02-0.651-0.162-1.739-0.346-2.201c-0.182-0.457-0.922-0.166-1.116-0.056
	c0.008-0.501,0.164-1.057-0.049-1.324c-0.24-0.302-1.125-0.383-1.278,0.092l-0.001,0.001c-0.002-0.417-0.05-0.845-0.174-1.028
	c-0.124-0.182-1.276-0.261-1.373,0.113c-0.002,0.007-0.007,0.022-0.008,0.029c-0.037-0.489-0.287-0.775-0.552-0.778
	c-0.289-0.003-0.505-0.099-0.943,0.383c-0.01,0.01-0.02,0.031-0.029,0.047c-0.059-0.313-0.127-0.581-0.18-0.734
	c-0.14-0.399-0.894-0.698-1.657-0.383C82.738,0.33,82.319,1.3,82.073,2.219c-0.29-0.333-1.081-0.329-1.438-0.184
	c-0.143,0.059-0.298,0.315-0.442,0.645c-0.007-0.035-0.012-0.075-0.023-0.101c-0.218-0.499-0.964-0.421-1.178-0.279
	c-0.13,0.086-0.332,0.469-0.473,0.851c-0.021-0.07-0.044-0.128-0.061-0.153c-0.165-0.269-0.82-0.389-1.113-0.123
	c-0.293,0.268-0.48,0.807-0.449,1.15c0.009,0.089-0.051,0.394-0.148,0.8c-0.263-0.445-0.838-0.375-1.255-0.07
	c-0.419,0.307-0.372,1.054-0.524,1.594c-0.25-0.184-0.647-0.186-0.761,0.155c-0.112,0.34-0.709,1.669-0.784,1.957
	C73.348,8.748,73.659,9.8,73.395,10.7s-0.874,3.313-1.074,4.863c-0.201,1.552-0.109,5.457-1.405,10.643
	c-1.297,5.187-2.431,11.713-2.431,11.713l6.456,2.361c0.301-2.236,1.693-3.736,4.03-5.585c2.337-1.848,2.947-4.298,1.466-7.064
	c-1.481-2.766-1.432-6.595-0.683-8.609c0.75-2.014,2.366-4.017,2.332-6.98c-0.034-2.964-0.499-4.009-0.299-4.819
	c0.153-0.618,0.401-0.767,0.567-1.472c0.115,0.317,0.213,0.569,0.244,0.669c0.092,0.299,0.489,0.937,0.108,2.305
	c-0.378,1.368-0.054,4.191,0.776,6.226c0.832,2.035,0.965,4.349,1.225,6.593c0.26,2.244-2.281,5.52-1.347,9.017
	c0.62,2.321,3.517,1.924,3.574,3.01l6.821-2.08C93.799,29.632,94.822,25.96,93.644,20.794z"/>
<path fill="#E4CED0" d="M72.492,223.721c4.993-0.224,5.986-2.416,8.784-6.499c-0.006-0.347-0.025-0.685-0.058-1.013
	c-0.639-6.441-1.208-7.1-4.07-9.306c-2.245-1.331-10.616-0.645-12.733,0.99c-1.76,1.928-2.644,3.218-2.286,9.076
	C64.313,222.577,67.499,223.945,72.492,223.721z"/>
<path fill="#D5B0B4" d="M69.155,213.618c-0.011,0-0.021,0-0.031,0c-0.244-0.003-0.454-0.143-0.677-0.291
	c-0.26-0.172-0.527-0.35-0.887-0.35c-0.021,0-0.042,0-0.065,0.002l-0.012-0.23c0.472-0.028,0.8,0.192,1.092,0.387
	c0.2,0.134,0.375,0.249,0.552,0.252c0.009,0,0.02,0,0.028,0c0.313,0,0.695-0.063,0.95-0.107c0.157-0.025,0.229-0.051,0.28-0.038
	c0.036,0,0.136,0.011,0.278,0.025c0.289,0.032,0.774,0.085,1.258,0.103c0.006,0,0.013,0,0.02,0c0.264,0,0.462-0.192,0.671-0.395
	c0.194-0.19,0.396-0.386,0.66-0.41l0.021,0.229c-0.183,0.019-0.347,0.178-0.521,0.346c-0.223,0.217-0.475,0.461-0.832,0.461
	c-0.009,0-0.019,0-0.028,0c-0.492-0.018-0.981-0.071-1.274-0.103c-0.13-0.015-0.222-0.025-0.256-0.025h-0.001
	c-0.028,0-0.14,0.019-0.238,0.035C69.881,213.552,69.488,213.618,69.155,213.618z"/>
<path fill="#D5B0B4" d="M70.267,212.917c-0.648,0-1.308-0.093-1.75-0.345l0.113-0.2c0.911,0.519,2.973,0.284,3.496,0.03l0.102,0.207
	C71.897,212.768,71.091,212.917,70.267,212.917z"/>
<rect x="71.793" y="215.777" transform="matrix(0.4691 0.8832 -0.8832 0.4691 229.1037 51.2728)" fill="#D5B0B4" width="0.231" height="0.806"/>
<rect x="69.047" y="216.022" transform="matrix(0.9279 0.3728 -0.3728 0.9279 85.5811 -10.2923)" fill="#D5B0B4" width="0.712" height="0.231"/>
<path fill="#19608C" d="M71.473,218.845c0.392-0.604,0.891-1.541,2.328-1.639c1.438-0.099,3.851-0.377,4.266,0.521
	c0.415,0.899,0.513,2.337-0.271,2.909c-0.783,0.572-4.921,0.721-5.676,0.518C71.364,220.95,71.101,219.419,71.473,218.845z"/>
<path fill="#2180BC" d="M73.194,220.654c-0.697-0.009-0.902-0.059-0.923-0.065c-0.054-0.014-0.169-0.125-0.262-0.367
	c-0.163-0.426-0.136-0.917-0.046-1.056l0.081-0.127c0.369-0.579,0.749-1.175,1.796-1.247l0.446-0.033
	c0.573-0.042,1.224-0.092,1.817-0.083c1.283,0.017,1.428,0.296,1.43,0.299c0.347,0.752,0.385,1.846-0.084,2.188
	C77.119,220.405,75.091,220.678,73.194,220.654z"/>
<path fill="#19608C" d="M69.704,218.835c-0.376-0.615-0.691-1.575-2.127-1.711c-1.435-0.135-3.316-0.575-3.755,0.313
	s-0.73,2.463,0.038,3.056s4.535,0.807,5.296,0.623C69.916,220.931,70.061,219.418,69.704,218.835z"/>
<path fill="#2180BC" d="M68.042,220.591c-1.771-0.023-3.51-0.321-3.823-0.563c-0.418-0.321-0.273-1.517,0.13-2.33
	c0.033-0.067,0.189-0.225,0.915-0.215c0.434,0.006,0.944,0.069,1.439,0.131c0.28,0.036,0.558,0.07,0.819,0.095
	c0.929,0.087,1.2,0.575,1.514,1.142c0.057,0.101,0.111,0.2,0.168,0.292c0.112,0.184,0.155,0.756-0.016,1.169
	c-0.064,0.157-0.138,0.228-0.171,0.235C68.911,220.572,68.591,220.598,68.042,220.591L68.042,220.591z"/>
<path fill="#19608C" d="M69.857,219.294c0.224,0.297,1.067,0.437,1.455,0.112l0.227,0.461c0,0,0.188,0.295-0.094,0.512
	c-0.282,0.219-1.281,0.183-1.628-0.114C69.472,219.969,69.857,219.294,69.857,219.294z"/>
<path fill="#19608C" d="M77.959,218.523c1.299-0.171,3.299-1.801,3.299-1.801s0.11,0.685,0.014,0.792
	c-0.137,0.154-1.137,1.358-3.247,1.799l-0.196-0.412L77.959,218.523z"/>
<path fill="#19608C" d="M63.55,218.155c-0.492-0.251-1.443-1.571-1.443-1.571s-0.023,0.857,0.104,1.196
	c0.113,0.305,0.589,0.978,1.174,1.43c0.241,0.187,0.233-0.391,0.233-0.391L63.55,218.155z"/>
</svg>
